<svg class="icon line" width="48" height="48" id="handphone-laptop" xmlns="http://www.w3.org/2000/svg" viewBox="0 0 24 24"><title style="stroke-width: 2; stroke: rgb(0, 0, 0);">handphone laptop</title><path id="primary" d="M3,20V10A1,1,0,0,1,4,9h7a1,1,0,0,1,1,1V20a1,1,0,0,1-1,1H4A1,1,0,0,1,3,20ZM19,3H5A1,1,0,0,0,4,4V9h7a1,1,0,0,1,1,1v5h8V4A1,1,0,0,0,19,3ZM12,15v2h8a1,1,0,0,0,1-1V15ZM6.5,11h2L9,9H6Z" style="fill: none; stroke: rgb(0, 0, 0); stroke-linecap: round; stroke-linejoin: round; stroke-width: 2;"></path></svg>