<svg data-name="Layer 1" xmlns="http://www.w3.org/2000/svg" viewBox="0 0 375.04 368.34">
  <g>
    <path d="M115.71 368.35H55.87a32 32 0 01-31.93-31.37L0 156.98v-.53a31.78 31.78 0 0112-24.92L167.56 7.05a31.72 31.72 0 0139.88 0l155.6 124.41a31.73 31.73 0 0112 24.91v.53l-23.94 180a31.95 31.95 0 01-31.93 31.37h-59.84a32 32 0 01-31.94-31.89v-47.87a35.75 35.75 0 00-.19-3.9v-.21a39.86 39.86 0 00-43.51-35.61 41.18 41.18 0 00-36.06 41.6v46a32 32 0 01-31.92 31.96zm-99.7-212.41l23.92 180v.53a16 16 0 0015.93 15.93h59.84a15.94 15.94 0 0015.93-15.93v-45.84a57.15 57.15 0 0150.18-57.69h.19a55.86 55.86 0 0161.13 50.05v.2a53.55 53.55 0 01.25 5.36v47.86a16 16 0 0015.93 15.93h59.85a15.94 15.94 0 0015.93-15.93v-.53l.07-.53 23.86-179.42a15.86 15.86 0 00-6-11.94L197.45 19.54a15.84 15.84 0 00-19.9 0L22 143.99a15.87 15.87 0 00-5.99 11.95z"/>
  <path d="M146.39 142.79c-9.05-24-42.95-24-52 0L84.1 138.9c12.64-33.44 59.94-33.44 72.58 0zM280.39 142.79c-9.05-24-42.95-24-52 0l-10.29-3.89c12.64-33.44 59.94-33.44 72.58 0z"/>
  </g>
</svg>
