<svg version="1.1" id="Layer_1" xmlns="http://www.w3.org/2000/svg" x="0" y="0" viewBox="0 0 100 25" xml:space="preserve"><style>.st1{fill:#fff}</style><linearGradient id="SVGID_1_" gradientUnits="userSpaceOnUse" x1="35.374" y1="799.978" x2="48.558" y2="779.717" gradientTransform="translate(-27.84 -778)"><stop offset=".01" stop-color="#380036"/><stop offset="1" stop-color="#0cbaba"/></linearGradient><path d="M11.12.58L.62 8.98c-.4.3-.6.8-.6 1.3l1.6 12.1c0 .9.7 1.6 1.6 1.6h4c.9 0 1.6-.7 1.6-1.6v-3.1c0-1.7 1.2-3.1 2.9-3.3 1.8-.2 3.4 1.1 3.5 2.9v3.5c0 .9.7 1.6 1.6 1.6h4c.9 0 1.6-.7 1.6-1.6l1.6-12.1c0-.5-.2-1-.6-1.3L12.92.58c-.3-.5-1.2-.5-1.8 0z" fill="url(#SVGID_1_)"/><path class="st1" d="M33.02 11.58l.7.9.4.5c.8 1 1.2 2.1 1.2 3.2s-.4 2-1.1 2.8c-1 1.1-2.3 1.7-3.8 1.7-1.2 0-2.2-.4-3-1.1-.8-.8-1.2-1.7-1.2-2.9 0-1.4.6-2.6 1.8-3.6.6-.5 1.2-.8 1.8-.8.3 0 .5.1.7.2s.3.4.3.6c0 .3-.2.6-.6.9l-.6.4c-.4.2-.7.5-.9.9s-.4.8-.4 1.2c0 .6.2 1.1.6 1.5.4.4 1 .6 1.6.6.7 0 1.3-.3 1.9-.8.5-.5.8-1.2.8-1.9 0-.5-.1-.9-.3-1.3-.2-.4-.7-1-1.4-1.8-.5-.6-.9-1-1.1-1.4h-2.1c-.7 0-1.1-.2-1.1-.7 0-.4.1-.6.4-.8s.6-.3 1.1-.3h1.3c.1-1 .6-1.9 1.4-2.6.8-.7 1.9-1 3-1 .9 0 1.6.2 2.2.7s.8 1.1.8 1.9c0 1-.4 1.8-1.3 2.4-.5.3-1.3.5-2.4.5h-.7v.1zm-.9-1.8h1.9c1.1 0 1.6-.3 1.6-.9 0-.2-.1-.4-.3-.6-.2-.1-.5-.2-.9-.2-.6 0-1.1.2-1.5.5-.5.3-.8.7-.8 1.2zM46.42 15.28h.9c.7 0 1 .2 1 .7 0 .3-.1.6-.4.7-.2.2-.6.3-1 .3h-1.6c-.3 0-.6-.1-.8-.3s-.3-.4-.3-.7c0-.2.1-.5.2-.8l.7-1.8c0-.1.1-.2.1-.3 0-.3-.2-.5-.5-.5s-.5.1-.8.4c-.3.2-.5.6-.6 1l-.9 2.2c-.3.7-.7 1.1-1.3 1.1-.2 0-.4-.1-.6-.2-.2-.1-.2-.3-.2-.5s0-.3.1-.5l.1-.2.9-2.2c.1-.2.1-.3.1-.5 0-.1-.1-.2-.2-.3-.1-.1-.2-.1-.4-.1-.6 0-1 .4-1.3 1.2l-.9 2.3c-.3.7-.7 1.1-1.3 1.1-.2 0-.4-.1-.6-.2-.2-.1-.2-.3-.2-.5s0-.3.1-.5l.1-.2 1.6-3.9c.2-.5.6-.8 1-.8.5 0 .7.2.8.6.4-.3.6-.5.9-.6.2-.1.5-.1.8-.1.7 0 1.2.3 1.6.9.6-.6 1.2-.9 2-.9.5 0 .9.1 1.3.4.3.3.5.6.5 1.1 0 .3-.1.5-.2.8l-.7 1.8zM54.02 15.28h.9c.7 0 1 .2 1 .7 0 .3-.1.6-.4.8-.2.2-.6.3-1 .3h-1c-.5 0-.8-.2-.9-.5-.4.4-.8.5-1.1.5h-.9c-.6 0-1-.2-1.4-.6-.4-.4-.5-1-.5-1.6 0-1 .3-1.9 1-2.7s1.5-1.2 2.4-1.2c.7 0 1.2.2 1.5.7.3-.4.6-.6 1-.6.2 0 .4.1.6.2.2.1.2.3.2.5 0 .1 0 .3-.1.5l-.1.2-1.2 2.8zm-2.9 0h.2c.4 0 .7-.2.9-.5l.6-1.4c.1-.2.1-.3.1-.4 0-.1-.1-.3-.2-.4-.1-.1-.3-.2-.5-.2-.4 0-.8.2-1.1.7-.4.4-.5.9-.5 1.4-.1.6.1.8.5.8zM58.12 12.68l-.3.7c-.2.6-.6.9-.9.9-.2 0-.4-.1-.6-.2s-.2-.3-.2-.5c0-.1.1-.3.2-.6l.9-2.2c.2-.5.5-.8.9-.8s.6.2.7.6l.1.2c0 .1.1.2.1.2h2.3c.7 0 1 .2 1 .7 0 .7-.4 1-1.3 1l-.1.1c-.8.8-1.3 1.4-1.3 1.8 0 .4.2.7.7.7h1c.7 0 1 .2 1 .7 0 .3-.1.6-.3.8s-.6.3-1 .3h-1.5c-.5 0-1-.2-1.3-.5-.3-.4-.5-.8-.5-1.4 0-.4.1-.7.3-1.1.2-.3.5-.8.9-1.3h-.8v-.1zM66.62 10.98h.2c.7 0 1 .2 1 .7 0 .3-.1.6-.4.7s-.6.3-1 .3h-.6l-1.1 2.6h.9c.7 0 1 .2 1 .7 0 .3-.1.6-.3.7-.2.2-.6.3-1 .3h-1.4c-.4 0-.7-.1-.9-.3s-.3-.4-.3-.7c0-.2 0-.4.1-.6l.1-.3.9-2.3h-.1c-.6 0-.9-.2-.9-.7 0-.3.1-.6.4-.8.2-.2.6-.3 1-.3h.4l.4-1 .1-.2c.2-.6.6-.9 1.2-.9.2 0 .4.1.6.2.2.1.2.3.2.5s-.1.5-.2.8l-.3.6zM71.32 11.28c.6-.3 1-.4 1.4-.4.5 0 .9.1 1.2.4.3.3.5.6.5 1.1 0 .3-.1.5-.2.9l-.8 2.1h.9c.7 0 1 .2 1 .7 0 .3-.1.6-.4.7-.2.2-.6.3-1 .3h-1.6c-.3 0-.6-.1-.8-.3s-.3-.4-.3-.7c0-.2.1-.4.2-.7l.7-1.8c.1-.2.1-.4.1-.5 0-.3-.2-.4-.6-.4-.5 0-1 .5-1.4 1.4l-.9 2.2c-.3.7-.7 1-1.2 1-.2 0-.4-.1-.6-.2-.2-.1-.2-.3-.2-.5 0-.1 0-.3.1-.5l.1-.2 3.4-8.4c.3-.7.7-1.1 1.2-1.1.2 0 .4.1.6.2.2.1.2.3.2.5s-.1.4-.2.7l-1.4 3.5zM79.22 10.88c.8 0 1.4.2 1.9.7s.7 1.1.7 1.8c0 .6-.1 1.1-.4 1.7-.3.6-.6 1-1 1.3-.3.2-.6.4-.8.4-.3.1-.7.1-1.2.1-.9 0-1.4-.1-1.7-.3-.7-.5-1.1-1.2-1.1-2.1 0-1 .4-1.9 1.1-2.6s1.5-1 2.5-1zm-.2 1.7c-.4 0-.7.2-1.1.6s-.5.8-.5 1.3c0 .6.3.9 1 .9.4 0 .7-.1.9-.4.4-.4.5-.9.5-1.4 0-.3-.1-.5-.3-.7s-.2-.3-.5-.3zM91.72 15.28h.9c.7 0 1 .2 1 .7 0 .3-.1.6-.3.7-.2.2-.6.3-1 .3h-1.6c-.3 0-.6-.1-.8-.3s-.3-.4-.3-.7c0-.2.1-.5.2-.8l.7-1.8c0-.1.1-.2.1-.3 0-.3-.2-.5-.5-.5s-.5.1-.8.4c-.3.2-.5.6-.6 1l-.9 2.2c-.3.7-.7 1.1-1.3 1.1-.2 0-.4-.1-.6-.2s-.2-.3-.2-.5 0-.3.1-.5l.1-.2.9-2.2c.1-.2.1-.3.1-.5 0-.1-.1-.2-.2-.3s-.2-.1-.4-.1c-.6 0-1 .4-1.3 1.2l-.9 2.3c-.3.7-.7 1.1-1.2 1.1-.2 0-.4-.1-.6-.2-.2-.1-.2-.3-.2-.5s0-.3.1-.5l.1-.2 1.6-3.9c.2-.5.5-.8 1-.8s.7.2.8.6c.4-.3.6-.5.9-.6.2-.1.5-.1.8-.1.7 0 1.2.3 1.6.9.6-.6 1.2-.9 2-.9.5 0 .9.1 1.3.4.3.3.5.6.5 1.1 0 .3-.1.5-.2.8l-.9 1.8zM95.82 14.68c0 .4.3.6.9.6h2.3c.7 0 1 .2 1 .7 0 .3-.1.6-.3.7-.2.2-.6.3-1 .3h-2.2c-.8 0-1.5-.2-1.9-.6-.4-.4-.6-1-.6-1.8 0-1 .3-1.9 1-2.6.7-.7 1.5-1.1 2.4-1.1.7 0 1.2.2 1.7.5.4.4.6.8.6 1.4 0 .7-.3 1.2-.9 1.6-.3.2-.8.3-1.4.3h-1.6zm.4-1.4h.9c.6 0 .8-.1.8-.4 0-.3-.2-.4-.5-.4-.5 0-.9.3-1.2.8z"/></svg>
