<svg xmlns="http://www.w3.org/2000/svg" width="16" height="14.769" viewBox="0 0 16 14.769">
  <g>
    <path 
      fill="#000"
      id="Path_87" data-name="Path 87" d="M18.64,18.409a1.231,1.231,0,0,1-1.74,0l-6.154-6.154a1.231,1.231,0,0,1,0-1.74L16.9,4.361A1.231,1.231,0,1,1,18.64,6.1l-5.284,5.284,5.284,5.284a1.231,1.231,0,0,1,0,1.74Zm-7.385,0a1.231,1.231,0,0,1-1.74,0L3.361,12.255a1.231,1.231,0,0,1,0-1.74L9.515,4.361a1.231,1.231,0,1,1,1.74,1.74L5.971,11.385l5.284,5.284a1.231,1.231,0,0,1,0,1.74Z" transform="translate(-3 -4)" fill-rule="evenodd"/>
  </g>
</svg>
