<svg xmlns="http://www.w3.org/2000/svg" width="32" height="32.442" viewBox="0 0 32 32.442">
  <g id="Group_14" data-name="Group 14" transform="translate(-711.4 -540.5)">
    <path id="Path_15" data-name="Path 15" d="M743.4,541.6v1.965a1.1,1.1,0,0,1-1.1,1.1h-.311v28.283H740.78l-1.72-1.736-1.785,1.736h-.753l-1.72-1.736-1.785,1.736h-1.67v-1.425l4.716-8.483a.3.3,0,0,0-.082-.377l-.36-.295a.312.312,0,0,1-.033-.442l.295-.311a.288.288,0,0,0-.1-.475,6.483,6.483,0,0,1-3.881-5.126l-1.458-11.333H724.37l-1.458,11.333a6.491,6.491,0,0,1-1.261,3.079,6.6,6.6,0,0,1-2.62,2.047.29.29,0,0,0-.1.475l.295.311a.312.312,0,0,1-.033.442l-.36.295a.3.3,0,0,0-.082.377l4.716,8.483v1.425H721.8l-1.8-1.736-1.736,1.736h-.753l-1.769-1.736L714,572.942h-1.2V544.66H712.5a1.1,1.1,0,0,1-1.1-1.1V541.6a1.1,1.1,0,0,1,1.1-1.1H742.3A1.1,1.1,0,0,1,743.4,541.6Z" fill="#000"/>
  </g>
</svg>
