<svg xmlns="http://www.w3.org/2000/svg" viewBox="0 0 48 48">
	<g>
		<path fill="none" d="M15.9 47H8.7c-2.1 0-3.8-1.7-3.8-3.8L2 21.6v-.1c0-1.2.5-2.3 1.4-3L22.1 3.6c1.4-1.1 3.4-1.1 4.8 0l18.7 14.9c.9.7 1.4 1.8 1.4 3v.1l-2.9 21.6c0 1-.4 1.9-1.1 2.6-.7.7-1.7 1.1-2.7 1.1h-7.2c-2.1 0-3.8-1.7-3.8-3.8v-5.7-.5c-.1-1.3-.7-2.4-1.7-3.2-1-.8-2.2-1.2-3.5-1.1-2.5.3-4.4 2.5-4.3 5v5.5c-.1 2.2-1.8 3.9-3.9 3.9zm-12-25.5l2.9 21.6v.1c0 1.1.9 1.9 1.9 1.9h7.2c.5 0 1-.2 1.4-.6.4-.4.6-.8.6-1.4v-5.5c-.1-3.5 2.5-6.5 6-6.9 1.8-.2 3.5.3 4.9 1.5 1.4 1.1 2.2 2.7 2.4 4.5V43c0 1.1.9 1.9 1.9 1.9h7.2c.5 0 1-.2 1.4-.6.4-.4.6-.8.6-1.4v-.2l2.9-21.5c0-.6-.3-1.1-.7-1.4L25.7 5.1c-.7-.6-1.7-.6-2.4 0L4.7 20c-.5.4-.7.9-.8 1.5z"/>
	<path fill="none" d="M20.3 22.4l-1 .9-2.5-2.6-2.6 2.5-1-1.1 2.6-2.5-2.5-2.6 1.1-1 2.5 2.7 2.6-2.5 1 1-2.6 2.5zM35.8 22.4l-1 .9-2.5-2.6-2.7 2.5-1-1.1 2.7-2.5-2.5-2.6 1-1 2.5 2.7 2.7-2.5 1 1-2.7 2.5z"/>
	</g>
</svg>
