<svg xmlns="http://www.w3.org/2000/svg" data-name="Layer 1" viewBox="0 0 64 80" x="0px" y="0px"><title>Artboard 21</title><path d="M30.751,18l-13,10.4A2,2,0,0,0,17,29.961L19,45a2,2,0,0,0,2,2h5a2,2,0,0,0,2-2V41.172a4.116,4.116,0,0,1,3.607-4.153A4,4,0,0,1,36,41v4a2,2,0,0,0,2,2h5a2,2,0,0,0,2-2l2-15.039a2,2,0,0,0-.751-1.561l-13-10.4A2,2,0,0,0,30.751,18Z"/><text x="0" y="79" fill="#000000" font-size="5px" font-weight="bold" font-family="'Helvetica Neue', Helvetica, Arial-Unicode, Arial, Sans-serif">Created by Nunnicha Supagrit</text><text x="0" y="84" fill="#000000" font-size="5px" font-weight="bold" font-family="'Helvetica Neue', Helvetica, Arial-Unicode, Arial, Sans-serif">from the Noun Project</text></svg>