<svg id="Layer_1" data-name="Layer 1" xmlns="http://www.w3.org/2000/svg" xmlns:xlink="http://www.w3.org/1999/xlink" viewBox="0 0 358.98 352.25"><defs><style>.cls-1{fill:url(#linear-gradient);}</style><linearGradient id="linear-gradient" x1="185.77" y1="397.8" x2="381.54" y2="96.91" gradientUnits="userSpaceOnUse"><stop offset="0.01" stop-color="#380036"/><stop offset="1" stop-color="#0cbaba"/></linearGradient></defs><path class="cls-1" d="M238.38,79.24,82.83,203.69a23.92,23.92,0,0,0-9,18.67l23.93,180a23.93,23.93,0,0,0,23.94,23.93h59.82a23.93,23.93,0,0,0,23.94-23.93V356.51a49.25,49.25,0,0,1,43.16-49.69A47.86,47.86,0,0,1,301,349.75a46.08,46.08,0,0,1,.23,4.7v47.87a23.93,23.93,0,0,0,23.93,23.93H385a23.93,23.93,0,0,0,23.94-23.93l23.93-180a23.92,23.92,0,0,0-9-18.67L268.27,79.24A23.92,23.92,0,0,0,238.38,79.24Z" transform="translate(-73.84 -74)"/></svg>