<svg id="Layer_1" data-name="Layer 1" xmlns="http://www.w3.org/2000/svg" xmlns:xlink="http://www.w3.org/1999/xlink" viewBox="0 0 446.91 106"><defs><style>.cls-1{fill:url(#linear-gradient);}.cls-2{font-size:72px;font-family:HarlowSolid, Harlow Solid Italic;}</style><linearGradient id="linear-gradient" x1="61.52" y1="248.44" x2="120.44" y2="157.89" gradientUnits="userSpaceOnUse"><stop offset="0.01" stop-color="#380036"/><stop offset="1" stop-color="#0cbaba"/></linearGradient></defs><path class="cls-1" d="M77.36,152.58,30.55,190a7.18,7.18,0,0,0-2.71,5.62L35,249.8a7.2,7.2,0,0,0,7.2,7.2h18a7.2,7.2,0,0,0,7.2-7.2V236a14.82,14.82,0,0,1,13-14.95A14.41,14.41,0,0,1,96.19,234c0,.47.07.94.07,1.42v14.4a7.2,7.2,0,0,0,7.2,7.2h18a7.2,7.2,0,0,0,7.2-7.2l7.21-54.15a7.21,7.21,0,0,0-2.71-5.62L86.35,152.58A7.18,7.18,0,0,0,77.36,152.58Z" transform="translate(-27.84 -151)"/><text class="cls-2" transform="translate(113.3 74.96)">Smarthome</text></svg>