<svg id="Layer_1" data-name="Layer 1" xmlns="http://www.w3.org/2000/svg" xmlns:xlink="http://www.w3.org/1999/xlink" viewBox="0 0 446.91 106"><defs><style>.cls-1{fill:url(#New_Gradient_Swatch_3);}.cls-2{font-size:72px;font-family:HarlowSolid, Harlow Solid Italic;}.cls-3{fill:url(#linear-gradient);}</style><linearGradient id="New_Gradient_Swatch_3" x1="61.52" y1="377.44" x2="120.44" y2="286.89" gradientUnits="userSpaceOnUse"><stop offset="0.01" stop-color="#380036"/><stop offset="1" stop-color="#0cbaba"/></linearGradient><linearGradient id="linear-gradient" x1="145.22" y1="339.03" x2="474.73" y2="339.03" gradientUnits="userSpaceOnUse"><stop offset="0" stop-color="#380036"/><stop offset="1" stop-color="#0cbaba"/></linearGradient></defs><path class="cls-1" d="M77.36,281.58,30.55,319a7.18,7.18,0,0,0-2.71,5.62L35,378.8a7.2,7.2,0,0,0,7.2,7.2h18a7.2,7.2,0,0,0,7.2-7.2V365a14.82,14.82,0,0,1,13-14.95A14.41,14.41,0,0,1,96.19,363c0,.47.07.94.07,1.42v14.4a7.2,7.2,0,0,0,7.2,7.2h18a7.2,7.2,0,0,0,7.2-7.2l7.21-54.15a7.21,7.21,0,0,0-2.71-5.62L86.35,281.58A7.18,7.18,0,0,0,77.36,281.58Z" transform="translate(-27.84 -280)"/><text class="cls-2" transform="translate(113.3 74.96)">Smarthome</text><path class="cls-3" d="M175.27,331l3.24,4.07,1.86,2.25q5.41,6.69,5.42,14.14A18.67,18.67,0,0,1,181,364.1q-6.52,7.48-17.12,7.49a18.59,18.59,0,0,1-13.43-5,17.15,17.15,0,0,1-5.23-12.92q0-9.63,8.15-16.07,4.32-3.41,8-3.41a4.46,4.46,0,0,1,3.1,1.09,3.67,3.67,0,0,1,1.19,2.82c0,1.54-.91,2.88-2.74,4l-2.81,1.73A12.25,12.25,0,0,0,156,348a10.41,10.41,0,0,0-1.61,5.34,9.17,9.17,0,0,0,2.83,6.91,10,10,0,0,0,7.19,2.72,11.34,11.34,0,0,0,8.36-3.6,11.68,11.68,0,0,0,3.55-8.49,11.21,11.21,0,0,0-1.44-5.63,54.05,54.05,0,0,0-6.22-7.84,32.4,32.4,0,0,1-4.78-6.46h-9.49c-3.24,0-4.86-1.12-4.86-3.34a4.46,4.46,0,0,1,1.71-3.75,7.7,7.7,0,0,1,4.8-1.32h6A16.42,16.42,0,0,1,168.45,311,21,21,0,0,1,182,306.48a14.21,14.21,0,0,1,9.69,3.27,10.7,10.7,0,0,1,3.74,8.47,11.79,11.79,0,0,1-5.94,10.62q-3.37,2.1-10.72,2.11Zm-4.21-8.41h8.43q7.14,0,7.14-4.15a3,3,0,0,0-1.46-2.6,6.88,6.88,0,0,0-3.88-1,11.15,11.15,0,0,0-6.91,2.35A7.39,7.39,0,0,0,171.06,322.54Z" transform="translate(-27.84 -280)"/><path class="cls-3" d="M234.79,347.29H239c3,0,4.43,1,4.43,3.13a4,4,0,0,1-1.57,3.34,7,7,0,0,1-4.34,1.2h-7.14a5.6,5.6,0,0,1-3.76-1.23,4.05,4.05,0,0,1-1.44-3.24,10.81,10.81,0,0,1,1-3.72l3.3-8.06a3.45,3.45,0,0,0,.29-1.3,2,2,0,0,0-2.32-2.28,5.3,5.3,0,0,0-3.56,1.62A11.37,11.37,0,0,0,221,341l-3.94,9.7c-1.28,3.14-3.16,4.71-5.62,4.71a3.5,3.5,0,0,1-2.46-.95,3,3,0,0,1-1-2.25,6.84,6.84,0,0,1,.53-2.39l.38-.95,4-9.81a5.86,5.86,0,0,0,.52-2,1.72,1.72,0,0,0-.7-1.35,2.5,2.5,0,0,0-1.65-.58c-2.53,0-4.54,1.83-6,5.48L200.9,350.7q-1.93,4.76-5.59,4.75a3.61,3.61,0,0,1-2.48-.93,2.94,2.94,0,0,1-1-2.27,6.63,6.63,0,0,1,.52-2.39l.39-.95,7-17.23q1.47-3.62,4.43-3.62a3.52,3.52,0,0,1,3.79,2.89,17.8,17.8,0,0,1,3.89-2.71,8.88,8.88,0,0,1,3.67-.67,7.65,7.65,0,0,1,7.07,4.11,12,12,0,0,1,8.86-4.11,8.34,8.34,0,0,1,5.64,1.95,6.1,6.1,0,0,1,2.27,4.8,9.81,9.81,0,0,1-.77,3.69Z" transform="translate(-27.84 -280)"/><path class="cls-3" d="M268.75,347.29h3.87c2.95,0,4.43,1,4.43,3.1a4,4,0,0,1-1.58,3.35,7,7,0,0,1-4.36,1.22h-4.5a4.09,4.09,0,0,1-4.11-2.36,7.84,7.84,0,0,1-5.1,2.36h-4a7.82,7.82,0,0,1-6.24-2.76,10.71,10.71,0,0,1-2.37-7.23,17.81,17.81,0,0,1,4.66-12.07q4.65-5.32,10.52-5.33c3,0,5.2,1,6.58,3.13a5.32,5.32,0,0,1,4.6-2.64,3.59,3.59,0,0,1,2.59,1,3.2,3.2,0,0,1,1,2.42,6.36,6.36,0,0,1-.57,2.36l-.38.95Zm-12.76.18h.88a3.72,3.72,0,0,0,3.83-2.36l2.46-6.08a5.43,5.43,0,0,0,.5-2,2,2,0,0,0-.94-1.65,3.58,3.58,0,0,0-2.23-.71q-2.57,0-5,3a9.72,9.72,0,0,0-2.43,6.19C253.07,346.26,254.05,347.47,256,347.47Z" transform="translate(-27.84 -280)"/><path class="cls-3" d="M287.18,335.76l-1.2,2.95c-1.08,2.63-2.48,3.94-4.22,3.94a3.79,3.79,0,0,1-2.64-.95,3,3,0,0,1-1.05-2.35,8.88,8.88,0,0,1,.77-2.74l4-9.81q1.44-3.56,4.07-3.55a3,3,0,0,1,3.2,2.46l.29,1.09a1.51,1.51,0,0,0,.63,1.05,6,6,0,0,0,2.07.21h8.23q4.6,0,4.6,3.24,0,4.45-5.83,4.46l-.39.35q-5.6,5.36-5.59,8.27t3.24,2.91h4.43c3,0,4.46,1,4.46,3.1a4,4,0,0,1-1.56,3.37,7.08,7.08,0,0,1-4.38,1.2H293.4a7.45,7.45,0,0,1-5.75-2.43,8.91,8.91,0,0,1-2.23-6.29,10.37,10.37,0,0,1,1.19-4.78,29.71,29.71,0,0,1,4.22-5.7Z" transform="translate(-27.84 -280)"/><path class="cls-3" d="M325.36,328.06h1.09c3,0,4.46,1.05,4.46,3.13a4,4,0,0,1-1.58,3.34,7.08,7.08,0,0,1-4.36,1.2H322.4l-4.71,11.56h3.94c3,0,4.46,1,4.46,3.13a4,4,0,0,1-1.56,3.34,7,7,0,0,1-4.38,1.2h-6.29a6.7,6.7,0,0,1-4.24-1.23,4,4,0,0,1-1.56-3.34,7.92,7.92,0,0,1,.63-2.89l.67-1.54,4.15-10.23H313c-2.62,0-3.94-1-3.94-3.06a4,4,0,0,1,1.57-3.39,7,7,0,0,1,4.37-1.22h1.62l1.86-4.6.39-.95c1.1-2.6,2.84-3.9,5.2-3.9a3.51,3.51,0,0,1,2.48,1,3.11,3.11,0,0,1,1,2.34,8.69,8.69,0,0,1-.91,3.38Z" transform="translate(-27.84 -280)"/><path class="cls-3" d="M346.34,329.57a13.67,13.67,0,0,1,6.09-2,8.13,8.13,0,0,1,5.53,1.88,6.08,6.08,0,0,1,2.16,4.8,10.26,10.26,0,0,1-.84,3.83l-3.69,9.21h4c3,0,4.43,1,4.43,3.13a4,4,0,0,1-1.56,3.34,7,7,0,0,1-4.38,1.2h-7.07a5.62,5.62,0,0,1-3.77-1.29,3.94,3.94,0,0,1-1.53-3.14,9.16,9.16,0,0,1,.8-3.24l3.24-7.94a6.93,6.93,0,0,0,.6-2.29c0-1.33-.89-2-2.68-2q-3.58,0-6,6.12l-3.94,9.66c-1.24,3.08-3.08,4.61-5.52,4.61a3.6,3.6,0,0,1-2.46-.91,2.87,2.87,0,0,1-1-2.22,6.55,6.55,0,0,1,.53-2.32l.38-.95,15.3-37.72c1.33-3.24,3.16-4.85,5.48-4.85a3.53,3.53,0,0,1,2.48,1,3.11,3.11,0,0,1,1,2.34,9.87,9.87,0,0,1-.92,3.34Z" transform="translate(-27.84 -280)"/><path class="cls-3" d="M381.68,327.57a11.48,11.48,0,0,1,8.38,3.23,11.07,11.07,0,0,1,3.29,8.23,17.56,17.56,0,0,1-1.73,7.47,16.12,16.12,0,0,1-4.46,5.93,10.77,10.77,0,0,1-3.78,2,21,21,0,0,1-5.47.55c-3.82,0-6.39-.46-7.73-1.37q-4.71-3.24-4.71-9.57a15.87,15.87,0,0,1,4.82-11.56A15.44,15.44,0,0,1,381.68,327.57Zm-.85,7.49a6.18,6.18,0,0,0-4.74,2.56,8.66,8.66,0,0,0-2.15,5.67q0,4.06,4.57,4.07a5.16,5.16,0,0,0,4.11-1.65,9.06,9.06,0,0,0,2.4-6.19,4.54,4.54,0,0,0-1.16-3.23A4,4,0,0,0,380.83,335.06Z" transform="translate(-27.84 -280)"/><path class="cls-3" d="M437.5,347.29h4.19c2.95,0,4.43,1,4.43,3.13a3.94,3.94,0,0,1-1.57,3.34,7,7,0,0,1-4.34,1.2h-7.14a5.6,5.6,0,0,1-3.76-1.23,4.05,4.05,0,0,1-1.44-3.24,10.81,10.81,0,0,1,.95-3.72l3.3-8.06a3.45,3.45,0,0,0,.29-1.3,2,2,0,0,0-2.32-2.28,5.26,5.26,0,0,0-3.55,1.62,11.27,11.27,0,0,0-2.82,4.29l-3.93,9.7q-1.94,4.71-5.63,4.71a3.5,3.5,0,0,1-2.46-.95,3,3,0,0,1-1-2.25,6.84,6.84,0,0,1,.53-2.39l.38-.95,4-9.81a5.86,5.86,0,0,0,.52-2,1.72,1.72,0,0,0-.7-1.35,2.5,2.5,0,0,0-1.65-.58c-2.53,0-4.54,1.83-6,5.48l-4.12,10.09q-1.94,4.76-5.59,4.75a3.61,3.61,0,0,1-2.48-.93,2.94,2.94,0,0,1-1-2.27,6.45,6.45,0,0,1,.53-2.39l.38-.95,7-17.23q1.47-3.62,4.43-3.62a3.52,3.52,0,0,1,3.79,2.89,17.8,17.8,0,0,1,3.89-2.71,8.91,8.91,0,0,1,3.67-.67,7.65,7.65,0,0,1,7.07,4.11,12,12,0,0,1,8.86-4.11,8.34,8.34,0,0,1,5.64,1.95,6.1,6.1,0,0,1,2.27,4.8,9.81,9.81,0,0,1-.77,3.69Z" transform="translate(-27.84 -280)"/><path class="cls-3" d="M455.89,344.66q0,2.63,4,2.63H470.3c3,0,4.43,1,4.43,3.13a4,4,0,0,1-1.56,3.34,7,7,0,0,1-4.38,1.2h-10q-5.55,0-8.45-2.75c-1.93-1.82-2.9-4.5-2.9-8a16.59,16.59,0,0,1,4.59-11.71A14.4,14.4,0,0,1,463,327.57a10.91,10.91,0,0,1,7.4,2.41,7.94,7.94,0,0,1,2.8,6.34,7.62,7.62,0,0,1-3.87,7,12.63,12.63,0,0,1-6.4,1.3Zm1.69-6.4h3.87c2.5,0,3.72-.55,3.65-1.65-.07-1.25-.88-1.87-2.42-1.87C460.52,334.74,458.82,335.92,457.58,338.26Z" transform="translate(-27.84 -280)"/></svg>